<svg xmlns="http://www.w3.org/2000/svg" viewBox="0 0 32 32" fill="currentColor"><path d="M16 4c2 0 3.5 1.5 3.5 3.5 0 1.4-.8 2.6-2 3.2 1.9.1 3.7.9 5 2.3 1.3 1.3 2.2 3.1 2.3 5-.6-1.2-1.8-2-3.2-2-2 0-3.5 1.5-3.5 3.5 0 1.4.8 2.6 2 3.2-1.9.1-3.7.9-5 2.3-1.3 1.3-2.2 3.1-2.3 5 .6-1.2 1.8-2 3.2-2 2 0 3.5 1.5 3.5 3.5 0 1.4-.8 2.6-2 3.2-2-.1-3.7-.9-5-2.3-1.3-1.3-2.2-3.1-2.3-5 .6 1.2 1.8 2 3.2 2 2 0 3.5-1.5 3.5-3.5 0-1.4-.8-2.6-2-3.2 1.9-.1 3.7-.9 5-2.3 1.3-1.3 2.2-3.1 2.3-5-.6 1.2-1.8 2-3.2 2-2 0-3.5-1.5-3.5-3.5C12.5 5.5 14 4 16 4z"/><circle cx="16" cy="16" r="3"/></svg>
