<svg xmlns="http://www.w3.org/2000/svg" width="20" height="20" viewBox="0 0 20 20" fill="none">
  <g clip-path="url(#clip0_282_948)">
    <path d="M9.58341 4.16666H9.94541C12.4848 4.16666 13.7545 4.16666 14.2364 4.62273C14.6531 5.01696 14.8377 5.59772 14.7252 6.16017C14.5951 6.81084 13.5585 7.54404 11.4853 9.01043L8.09818 11.4062C6.025 12.8726 4.9884 13.6058 4.85828 14.2565C4.7458 14.8189 4.93043 15.3997 5.34705 15.7939C5.82903 16.25 7.09871 16.25 9.63808 16.25H10.4167M6.66675 4.16666C6.66675 5.54737 5.54746 6.66666 4.16675 6.66666C2.78604 6.66666 1.66675 5.54737 1.66675 4.16666C1.66675 2.78594 2.78604 1.66666 4.16675 1.66666C5.54746 1.66666 6.66675 2.78594 6.66675 4.16666ZM18.3334 15.8333C18.3334 17.214 17.2141 18.3333 15.8334 18.3333C14.4527 18.3333 13.3334 17.214 13.3334 15.8333C13.3334 14.4526 14.4527 13.3333 15.8334 13.3333C17.2141 13.3333 18.3334 14.4526 18.3334 15.8333Z" stroke="white" stroke-width="1.5" stroke-linecap="round" stroke-linejoin="round"/>
  </g>
  <defs>
    <clipPath id="clip0_282_948">
      <rect width="20" height="20" fill="white"/>
    </clipPath>
  </defs>
</svg>
