<svg xmlns="http://www.w3.org/2000/svg" width="20" height="20" viewBox="0 0 20 20" fill="none">
  <path d="M13.3337 7.5V5C13.3337 3.15905 11.8413 1.66667 10.0004 1.66667C8.15944 1.66667 6.66706 3.15905 6.66706 5V7.5M2.99373 8.62664L2.49373 13.96C2.35156 15.4764 2.28048 16.2346 2.5321 16.8202C2.75314 17.3347 3.14049 17.7601 3.63207 18.0281C4.19166 18.3333 4.95319 18.3333 6.47626 18.3333H13.5245C15.0476 18.3333 15.8091 18.3333 16.3687 18.0281C16.8603 17.7601 17.2476 17.3347 17.4687 16.8202C17.7203 16.2346 17.6492 15.4764 17.5071 13.96L17.0071 8.62664C16.887 7.34612 16.827 6.70586 16.539 6.2218C16.2854 5.79549 15.9107 5.45426 15.4625 5.24154C14.9537 5 14.3106 5 13.0245 5L6.97626 5C5.69013 5 5.04707 5 4.53824 5.24154C4.09011 5.45426 3.7154 5.79549 3.46177 6.2218C3.1738 6.70586 3.11377 7.34612 2.99373 8.62664Z" stroke="white" stroke-width="1.5" stroke-linecap="round" stroke-linejoin="round"/>
</svg>
