<svg xmlns="http://www.w3.org/2000/svg" viewBox="0 0 24 24" fill="currentColor"><path d="M12 2.5a9.5 9.5 0 0 0-8.2 14.3L2.5 22l5.4-1.4A9.5 9.5 0 1 0 12 2.5zm0 17.3a7.8 7.8 0 0 1-4-1.1l-.3-.2-3 .8.8-2.9-.2-.3a7.8 7.8 0 1 1 6.7 3.7zm4.4-5.8c-.2-.1-1.4-.7-1.6-.8-.2-.1-.4-.1-.5.1l-.7.9c-.1.2-.3.2-.5.1-.2-.1-.9-.3-1.8-1.1-.7-.6-1.1-1.3-1.2-1.5-.1-.2 0-.4.1-.5l.4-.5c.1-.1.2-.3.2-.4 0-.1.1-.3 0-.4 0-.1-.5-1.3-.7-1.7-.2-.5-.4-.4-.5-.4h-.4c-.2 0-.4 0-.6.3-.2.3-.8.8-.8 1.9 0 1.1.8 2.2.9 2.4.1.2 1.6 2.5 4 3.5.6.3 1 .4 1.4.5.6.2 1.1.2 1.5.1.5-.1 1.4-.6 1.6-1.1.2-.6.2-1 .1-1.1 0-.1-.2-.2-.4-.3z"/></svg>
